# xmcd
#
# Track frame offsets: 
#        150
#        25972
#        45746
#        69525
#        87379
#        105908
#        130390
#        156445
#        182832
#        200431
#        222728
#
# Disc length: 3381 seconds
#
# Revision: 0
# Processed by: cddbd v1.4PL0 Copyright (c) Steve Scherf et al.
# Submitted via: ExactAudioCopy v0.90b4
#
DISCID=a20d330b
DTITLE=Jimmy Rip - Way Past Blue
DYEAR=1900
DGENRE=Blues
TTITLE0=It's Goin' Round
TTITLE1=Close To You
TTITLE2=Cold Comfort
TTITLE3=Snake Eyes
TTITLE4=Detroit Jewel
TTITLE5=Walk
TTITLE6=Mojo
TTITLE7=Insanity Please
TTITLE8=Layin' In The Cut
TTITLE9=State Of Mind
TTITLE10=Way Past Blue
EXTD=
EXTT0=
EXTT1=
EXTT2=
EXTT3=
EXTT4=
EXTT5=
EXTT6=
EXTT7=
EXTT8=
EXTT9=
EXTT10=
PLAYORDER=
